<?xml version="1.0" standalone="no"?>
<!DOCTYPE svg PUBLIC "-//W3C//DTD SVG 20010904//EN"
 "http://www.w3.org/TR/2001/REC-SVG-20010904/DTD/svg10.dtd">
<svg version="1.0" xmlns="http://www.w3.org/2000/svg"
 width="640.000000pt" height="640.000000pt" viewBox="0 0 640.000000 640.000000"
 preserveAspectRatio="xMidYMid meet">

<g transform="translate(0.000000,640.000000) scale(0.100000,-0.100000)"
fill="#000000" stroke="none">
<path d="M3934 5718 c-3 -5 -28 -21 -55 -37 -27 -15 -46 -31 -41 -35 4 -4 0
-7 -8 -5 -8 1 -40 -9 -70 -23 -106 -50 -169 -78 -175 -78 -3 0 -44 -18 -91
-40 -47 -22 -88 -40 -90 -40 -8 0 -252 -113 -318 -147 -110 -57 -277 -62 -401
-11 -39 16 -75 21 -162 23 -102 2 -113 0 -113 -16 0 -10 9 -19 23 -22 21 -3
21 -4 2 -11 -11 -4 -35 -14 -53 -22 -18 -8 -41 -14 -52 -14 -32 0 -301 67
-361 89 -29 12 -57 21 -61 21 -17 0 -7 -125 17 -212 7 -26 4 -29 -36 -46 -24
-10 -63 -20 -87 -20 -24 -1 -51 -6 -60 -11 -29 -14 -141 -30 -262 -35 -63 -3
-153 -8 -200 -12 -477 -32 -516 -38 -488 -71 30 -36 200 -135 401 -233 185
-90 216 -108 212 -125 -2 -11 -4 -28 -4 -39 -1 -15 -4 -16 -16 -6 -10 9 -15 9
-15 1 0 -6 -15 -11 -32 -11 -18 0 -43 0 -56 0 -13 -1 -35 10 -48 23 -22 22
-23 26 -8 38 14 12 14 14 -3 20 -30 12 -51 10 -67 -7 -16 -16 -12 -39 5 -29 5
4 12 -7 15 -24 4 -21 11 -28 21 -24 11 4 14 -1 12 -23 -1 -16 2 -37 6 -47 11
-26 -28 -61 -61 -53 -14 4 -24 2 -24 -5 0 -6 -6 -9 -12 -6 -7 2 -12 14 -10 25
2 15 -2 22 -12 22 -16 0 -22 15 -8 23 4 2 2 3 -5 1 -6 -1 -14 0 -18 4 -10 10
-84 12 -90 2 -3 -5 -1 -11 5 -15 5 -3 10 -10 10 -16 0 -13 -28 -11 -32 3 -3 8
-11 9 -24 3 -10 -4 -21 -9 -24 -9 -13 -3 -50 -42 -50 -53 0 -7 -9 -13 -20 -13
-11 0 -20 -6 -20 -14 0 -27 -58 -28 -230 -3 -58 9 -127 18 -155 21 -27 3 -90
12 -140 20 -50 8 -136 17 -193 20 l-102 5 0 -67 0 -67 43 -1 c24 0 54 -8 67
-17 22 -14 133 -39 230 -51 119 -16 316 -49 338 -57 36 -14 11 -29 -35 -22
-26 4 -33 2 -33 -11 0 -9 4 -16 8 -16 12 0 11 -34 -1 -41 -16 -11 -46 2 -44
20 1 9 -2 16 -8 16 -5 0 -9 -5 -9 -12 1 -6 -4 -9 -11 -7 -21 8 -85 -23 -85
-42 0 -13 -6 -15 -34 -10 -29 6 -36 3 -41 -13 -3 -11 -18 -22 -33 -26 -26 -5
-27 -8 -27 -71 l0 -66 27 6 c21 4 26 2 22 -9 -3 -8 -3 -19 0 -24 9 -14 37 -2
29 13 -3 6 2 4 13 -4 10 -8 29 -21 42 -28 18 -10 22 -10 22 3 0 13 19 20 43
16 5 -1 16 8 26 20 l18 22 16 -33 c10 -18 17 -39 17 -47 0 -7 5 -13 11 -13 7
0 9 10 5 26 -5 19 -3 25 6 21 7 -2 12 -14 10 -27 -1 -12 6 -29 15 -36 17 -13
17 -13 -2 -14 -26 0 -45 -18 -38 -36 3 -8 1 -20 -5 -27 -5 -6 -12 -25 -16 -40
-7 -28 -14 -39 -48 -77 -16 -18 -15 -19 10 -22 16 -2 28 -10 30 -21 3 -13 -2
-17 -15 -15 -18 3 -20 -3 -8 -33 7 -20 -63 -36 -315 -74 -96 -14 -190 -28
-207 -31 -21 -3 -33 -11 -33 -21 0 -10 5 -13 17 -8 10 3 68 10 128 15 126 11
227 24 338 44 43 8 108 12 144 10 36 -2 81 2 102 9 37 13 121 8 90 -5 -11 -4
-15 -14 -12 -32 4 -20 1 -26 -11 -26 -9 0 -26 -9 -38 -20 -12 -11 -28 -20 -35
-20 -7 0 -39 -9 -70 -20 -32 -11 -68 -20 -80 -20 -16 0 -27 -9 -37 -34 -15
-36 -41 -46 -124 -46 -41 0 -299 23 -380 34 l-32 5 0 -1620 0 -1619 66 0 c56
0 65 2 60 16 -3 9 -9 27 -13 42 -5 20 -3 24 9 19 23 -8 11 29 -29 87 -18 26
-33 56 -33 65 0 9 -5 22 -12 29 -21 21 0 25 39 7 21 -10 66 -36 101 -58 52
-32 75 -40 128 -45 35 -2 67 -8 69 -12 3 -4 -2 -33 -10 -64 -8 -31 -15 -63
-15 -71 0 -13 132 -15 976 -15 970 0 975 0 970 20 -20 71 -18 67 -27 45 -8
-18 -8 -17 -6 5 1 16 10 26 27 31 23 6 11 13 -17 10 -26 -4 0 28 28 34 38 9
57 50 35 74 -14 15 -13 20 4 49 11 18 25 32 30 32 6 0 9 4 6 8 -7 12 11 35 30
38 28 4 101 -56 123 -101 11 -22 23 -67 27 -100 l7 -60 -21 25 c-23 27 -27 24
-13 -12 6 -13 12 -40 16 -60 4 -29 11 -38 25 -38 24 0 26 37 10 139 -11 62 -7
88 9 63 7 -12 67 -7 76 7 6 10 75 1 75 -10 0 -5 -8 -9 -17 -9 -16 -1 -16 -2 1
-11 10 -6 43 -9 72 -7 63 5 71 -7 14 -22 -21 -6 -42 -14 -44 -19 -3 -5 -31
-12 -61 -16 -40 -5 -55 -11 -55 -22 0 -9 -6 -21 -14 -27 -9 -7 -13 -21 -10
-37 5 -21 12 -26 44 -27 l38 -3 6 54 c7 52 8 54 33 49 22 -4 24 -7 11 -16 -14
-10 -12 -14 14 -29 16 -9 36 -17 44 -17 8 0 14 -7 14 -15 0 -20 17 -19 28 2 9
14 10 14 16 -5 8 -24 32 -30 39 -9 3 9 7 9 19 -1 13 -10 17 -10 22 0 5 10 7
10 12 1 3 -8 26 -13 58 -13 55 0 53 -1 84 63 2 4 -12 14 -32 22 -37 16 -48 35
-20 35 11 0 14 5 9 18 -4 9 -6 90 -6 180 1 140 -1 163 -14 169 -13 4 -10 11
15 36 18 17 27 33 21 35 -6 2 -11 8 -11 13 0 11 30 0 53 -19 15 -14 17 -13 17
2 0 10 -16 24 -42 35 l-43 18 -15 -31 c-13 -25 -21 -31 -48 -31 -34 0 -44 -11
-14 -18 12 -2 8 -8 -18 -19 l-35 -15 -8 31 c-4 17 -5 75 -1 129 3 59 2 97 -4
97 -12 0 -20 -66 -27 -230 -9 -209 -10 -216 -43 -214 -15 1 -33 -3 -39 -9 -7
-5 -25 -7 -40 -4 -31 6 -134 -20 -145 -36 -4 -8 -13 -6 -26 6 -10 9 -23 17
-28 17 -5 0 -20 26 -34 58 -14 31 -26 50 -28 41 -1 -8 4 -28 12 -44 22 -41 12
-43 -31 -5 -66 58 -67 60 -26 129 27 45 45 64 70 73 33 12 37 18 33 52 -1 10
4 23 12 27 19 13 28 11 28 -6 0 -8 5 -15 11 -15 5 0 7 -5 4 -10 -9 -15 7 -12
29 5 26 20 37 19 29 -2 -4 -10 35 25 85 78 50 53 107 104 127 113 19 9 35 21
35 27 0 16 77 94 123 125 23 16 69 52 102 79 33 28 91 72 128 99 37 27 67 52
67 56 0 7 82 66 146 106 19 11 44 30 56 41 46 42 64 45 112 23 39 -17 53 -19
118 -10 40 5 139 10 220 10 138 0 149 -1 198 -26 29 -14 71 -29 93 -32 34 -4
39 -3 34 11 -5 14 0 16 36 11 35 -5 45 -2 61 15 35 38 91 29 224 -38 64 -32
137 -66 162 -74 65 -22 223 -87 236 -98 15 -12 98 -7 115 7 8 6 30 17 49 23
49 16 173 109 167 125 -3 8 1 26 9 41 19 38 18 40 -12 20 -29 -19 -40 -18
-204 11 -52 9 -109 17 -125 18 -17 0 -43 9 -58 19 -14 9 -29 17 -32 17 -4 0
-21 11 -38 24 -18 13 -56 36 -84 51 -29 15 -60 40 -69 54 -9 14 -28 38 -42 53
-36 39 -56 168 -34 216 9 17 22 32 30 32 23 0 153 -80 158 -98 13 -43 44 -70
44 -38 0 8 9 20 19 26 17 8 29 1 80 -50 51 -52 64 -60 86 -54 18 5 25 2 25 -9
0 -14 104 -117 118 -117 10 1 62 76 62 89 0 6 -7 11 -16 11 -9 0 -12 5 -8 13
5 9 4 9 -6 0 -10 -9 -18 -8 -35 3 -19 13 -24 12 -45 -6 -25 -22 -40 -18 -40 9
0 21 -33 52 -73 69 -15 7 -36 25 -45 42 -9 16 -23 30 -29 30 -16 0 -17 22 -2
37 7 7 20 38 31 70 11 32 51 123 90 203 67 138 74 157 60 153 -4 0 -42 -4 -84
-8 -74 -7 -78 -6 -78 13 0 26 -18 38 -26 18 -3 -9 -11 -16 -18 -16 -6 0 -23
-6 -38 -14 -53 -28 -45 12 9 44 69 41 360 73 452 50 25 -6 54 -18 63 -27 9 -8
21 -12 27 -9 9 6 16 17 58 99 9 17 32 54 51 82 46 65 72 152 72 243 0 98 -17
116 -110 116 -36 -1 -77 -7 -90 -14 -18 -10 -90 -15 -265 -18 l-240 -4 -67 37
c-38 20 -76 49 -87 63 -12 17 -24 66 -34 134 -16 104 -37 168 -57 168 -14 0
-13 -12 5 -53 19 -46 19 -68 0 -61 -22 9 -38 -5 -24 -22 13 -16 -1 -20 -17 -4
-15 15 -84 16 -93 1 -7 -11 -17 -10 -55 4 -52 20 -62 38 -16 29 24 -5 30 -3
30 10 0 10 -11 19 -30 22 -59 12 -59 31 1 84 l54 48 -30 34 c-38 43 -65 68
-74 68 -4 0 -15 -13 -24 -30 -15 -25 -21 -28 -40 -20 -12 6 -83 28 -157 51
-74 22 -155 51 -179 65 -33 18 -47 21 -57 13 -8 -6 -14 -17 -14 -23 0 -22 -17
-37 -33 -30 -9 3 -17 15 -17 27 0 11 -7 29 -17 39 -15 17 -15 19 1 36 15 18
15 20 -2 35 -10 10 -24 17 -30 17 -6 0 -29 18 -50 41 -42 43 -74 125 -76 195
l-1 39 125 -1 c121 0 127 -1 190 -33 36 -19 68 -38 71 -42 3 -5 22 -7 42 -5
35 5 38 3 57 -34 20 -40 27 -67 10 -40 -14 23 -23 4 -10 -20 10 -18 14 -20 21
-9 6 10 9 9 14 -6 28 -83 116 -217 132 -201 3 3 -24 67 -61 141 -68 136 -73
159 -40 186 11 9 26 10 67 1 29 -6 156 -25 282 -42 127 -17 262 -35 300 -40
39 -5 115 -14 170 -20 55 -6 177 -22 270 -35 442 -62 598 -80 618 -72 33 12
17 86 -23 107 -11 6 -118 24 -237 40 -120 16 -250 34 -288 39 -39 6 -104 13
-145 17 -104 9 -109 9 -116 17 -10 10 -226 8 -242 -2 -8 -4 -38 -3 -70 4 -31
7 -84 17 -117 23 -67 13 -317 41 -382 44 -24 1 -43 5 -43 10 0 4 20 48 44 98
25 49 54 120 66 157 12 37 26 75 30 83 5 8 23 40 41 70 17 30 41 64 53 76 12
11 29 34 39 50 9 16 33 51 51 78 56 79 70 160 62 342 -3 84 -9 166 -12 183
-11 54 13 34 39 -33 19 -46 28 -91 33 -167 4 -57 11 -109 16 -116 5 -7 5 -14
-2 -18 -5 -3 -10 -41 -10 -85 0 -43 -4 -81 -9 -84 -5 -3 -9 -16 -9 -28 0 -60
-52 -176 -73 -163 -5 4 -9 25 -7 47 2 25 -2 43 -9 45 -8 3 -11 -12 -8 -53 4
-66 14 -81 43 -63 25 15 79 121 88 172 5 32 11 39 35 44 16 3 32 10 36 16 4 6
-4 8 -21 3 -25 -6 -26 -5 -27 41 -1 27 -1 68 -1 92 1 25 -3 50 -9 57 -6 7 -12
28 -13 46 -2 18 -7 59 -11 91 -6 50 -5 57 9 51 11 -4 16 -1 16 10 0 9 -6 16
-13 16 -6 0 -17 15 -24 33 -52 146 -69 187 -95 220 -36 45 -55 56 -126 72 -72
17 -111 5 -393 -118 -20 -9 -40 -13 -43 -9 -4 3 -10 2 -14 -3 -4 -6 -59 -34
-122 -64 -63 -30 -158 -79 -210 -110 -91 -54 -97 -55 -165 -55 -38 1 -95 9
-125 18 -74 21 -145 9 -255 -44 -94 -44 -105 -46 -163 -26 -52 19 -295 82
-347 91 -69 12 -25 -11 55 -29 99 -21 303 -77 313 -86 4 -4 -14 -15 -40 -24
-57 -20 -148 -57 -294 -120 -59 -25 -111 -46 -117 -46 -5 0 -44 -16 -86 -35
-43 -19 -87 -35 -99 -36 -37 -1 -131 -53 -144 -79 -14 -28 -25 -31 -214 -54
-69 -9 -134 -18 -145 -22 -14 -4 -16 -3 -5 4 21 15 6 42 -20 35 -13 -4 -26 0
-33 9 -12 15 -56 31 -56 19 0 -14 -56 -27 -97 -23 -31 3 -43 9 -44 21 -1 9 -2
23 -3 31 0 8 -7 15 -13 14 -7 -1 -20 -2 -28 -2 -8 -1 -15 -12 -15 -24 0 -39
-9 -14 -15 42 -3 30 -8 66 -11 80 -2 14 2 42 11 63 19 45 19 58 1 51 -9 -3
-17 -27 -21 -57 -15 -121 -18 -137 -27 -131 -5 3 -7 12 -4 20 3 8 -1 14 -9 14
-19 0 -19 9 -1 46 18 37 27 263 10 239 -15 -20 -21 -19 -27 5 -10 39 -35 23
-42 -27 -3 -27 -7 -55 -8 -63 -5 -29 -78 -10 -207 53 -69 34 -127 64 -130 67
-16 16 -138 69 -232 101 -37 12 -65 26 -63 29 6 9 59 12 202 13 62 1 113 5
113 10 0 4 5 5 12 1 6 -4 33 -6 59 -5 35 1 48 -2 53 -14 3 -9 10 -13 16 -10 6
4 8 11 5 16 -4 5 -3 9 2 9 4 0 48 5 97 11 71 9 94 8 113 -2 22 -12 33 -10 86
10 34 12 80 29 102 37 22 8 50 19 62 26 12 6 35 8 52 6 17 -3 31 -1 31 3 0 3
64 30 143 58 204 75 200 73 222 88 11 7 38 13 60 13 23 0 45 4 50 9 6 5 49 21
96 36 l86 26 131 -25 c73 -14 147 -32 165 -40 47 -21 97 -25 126 -10 14 8 34
14 44 14 10 0 21 9 25 20 7 19 183 113 352 189 41 18 82 37 90 42 8 5 25 14
38 19 13 5 46 21 75 34 29 13 72 31 97 40 25 8 83 31 129 51 46 19 86 33 89
30 3 -3 0 -16 -6 -30 -11 -23 -10 -25 12 -25 13 0 27 -7 30 -15 7 -19 92 -59
159 -77 63 -16 74 -37 61 -116 -8 -49 -12 -57 -32 -60 -13 -2 -31 0 -40 3 -32
13 -264 4 -361 -15 -53 -10 -98 -16 -100 -14 -2 2 -1 10 2 19 4 10 20 15 47
15 22 0 40 5 40 10 0 6 -13 10 -30 10 -16 0 -30 3 -30 8 1 4 28 38 60 76 33
39 60 79 60 91 0 16 10 23 45 33 28 7 45 18 45 27 0 8 -1 15 -2 15 -2 0 -23
-6 -48 -14 -38 -11 -48 -20 -67 -57 -12 -24 -41 -67 -65 -96 -208 -250 -266
-332 -323 -457 -19 -42 -35 -89 -35 -104 0 -20 13 -2 48 68 67 132 132 227
144 209 7 -12 8 -11 6 1 -1 8 10 34 26 57 l28 41 20 -20 c18 -18 21 -36 24
-136 4 -115 17 -163 29 -106 8 37 62 191 78 224 10 19 25 27 72 37 73 15 273
14 283 -1 4 -6 12 -51 19 -101 l12 -90 -3 85 c-2 47 -5 92 -7 100 -3 10 3 15
16 15 18 0 21 -9 26 -85 5 -75 6 -78 8 -30 2 30 6 69 10 85 l7 30 17 -30 c13
-24 16 -26 17 -10 0 11 -7 32 -14 48 -14 25 -13 27 4 27 22 0 32 -47 27 -132
-4 -63 -1 -73 20 -57 20 18 14 108 -12 172 -6 13 -2 17 18 17 24 0 25 -3 20
-35 -4 -23 -2 -35 6 -35 6 0 11 13 11 28 0 15 5 33 12 40 14 14 4 18 -66 26
-27 3 -51 8 -54 10 -2 2 2 35 10 73 12 60 16 68 36 67 25 -1 29 18 7 36 -9 7
-15 29 -15 52 0 21 -6 51 -14 66 -18 34 -72 76 -111 87 -47 12 -176 21 -181
13z m169 -33 c24 -4 53 -19 78 -42 33 -30 39 -42 39 -74 0 -22 -3 -39 -7 -39
-5 0 -26 18 -47 40 -42 42 -76 56 -165 67 -41 5 -55 11 -59 25 -3 14 -7 16
-18 7 -9 -7 -14 -8 -14 -1 0 16 22 20 51 9 29 -11 64 -3 54 13 -4 6 5 8 22 5
15 -2 45 -7 66 -10z m-33 -76 c43 -10 80 -33 80 -50 0 -4 -20 1 -45 12 -25 11
-50 17 -56 13 -17 -10 1 -20 64 -38 31 -9 57 -21 57 -27 0 -6 -6 -9 -14 -6 -8
3 -34 11 -58 17 -24 7 -56 19 -73 28 -27 14 -28 16 -10 22 16 6 13 9 -18 15
-27 5 -35 10 -25 16 17 11 43 11 98 -2z m-2089 -305 c24 -8 98 -28 163 -44 65
-16 121 -32 123 -34 3 -2 -6 -7 -19 -11 -37 -11 -201 -75 -221 -86 -28 -15
-33 -2 -10 24 11 12 23 29 27 37 4 8 -10 -5 -32 -29 -21 -24 -44 -41 -49 -38
-18 11 -39 125 -35 180 2 21 0 21 53 1z m2117 -14 c4 -10 -4 -12 -34 -7 -22 4
-55 7 -74 7 -27 0 -31 3 -20 10 22 15 123 7 128 -10z m72 0 c0 -5 -11 -10 -24
-10 -14 0 -28 5 -31 10 -4 6 7 10 24 10 17 0 31 -4 31 -10z m-450 -28 c0 -14
-48 -33 -55 -22 -4 6 -3 15 0 20 7 12 55 13 55 2z m-770 -12 c0 -5 -8 -10 -17
-10 -15 0 -16 2 -3 10 19 12 20 12 20 0z m751 -94 c-12 -25 -21 -54 -21 -65 0
-11 -4 -23 -10 -26 -11 -7 -13 40 -3 98 4 27 13 41 27 47 29 11 31 -1 7 -54z
m969 -27 c13 -6 12 -9 -3 -15 -13 -5 -26 0 -40 16 l-22 22 25 -7 c14 -4 32
-11 40 -16z m-3615 -286 c44 -20 116 -58 160 -84 45 -26 106 -60 138 -74 31
-15 59 -31 62 -36 10 -15 -1 -11 -67 25 -35 19 -103 51 -153 71 -117 49 -293
137 -325 164 -23 19 -20 19 40 -5 36 -14 101 -42 145 -61z m550 -103 c-3 -5
-12 -7 -20 -3 -21 7 -19 13 6 13 11 0 18 -4 14 -10z m2874 -101 c139 -28 167
-41 174 -78 4 -18 0 -45 -9 -67 -11 -25 -15 -60 -12 -108 2 -58 0 -71 -12 -71
-9 0 -19 15 -24 38 -5 20 -13 37 -16 37 -4 0 -15 -21 -25 -47 -19 -49 -121
-258 -138 -280 -4 -6 -15 -9 -24 -6 -30 12 12 143 46 143 19 0 44 57 91 205 7
22 17 50 22 61 10 22 4 59 -14 82 -7 7 -36 12 -79 12 -38 0 -78 5 -89 12 -15
9 -27 10 -52 1 -18 -6 -48 -14 -65 -18 -27 -5 -37 -15 -53 -52 -11 -25 -20
-60 -21 -77 -1 -17 -5 -42 -9 -56 -7 -21 -8 -22 -9 -5 -2 23 -37 73 -45 64 -3
-3 -7 -44 -7 -92 -1 -48 -4 -87 -6 -87 -2 0 -19 25 -38 55 -39 61 -39 70 2
163 13 29 27 50 32 47 5 -3 12 3 16 14 10 31 53 71 76 71 13 0 32 9 43 19 19
17 82 37 127 40 9 1 62 -8 118 -20z m-979 -38 c0 -15 -147 -119 -154 -109 -21
27 -36 55 -36 64 0 6 21 17 48 23 26 7 61 16 77 21 41 11 65 12 65 1z m-1540
-281 c0 -5 -5 -10 -11 -10 -5 0 -7 5 -4 10 3 6 8 10 11 10 2 0 4 -4 4 -10z
m2056 -38 c-9 -17 -21 -34 -27 -38 -7 -4 -2 12 11 34 27 47 40 50 16 4z
m-3854 -14 c-9 -9 -15 -9 -24 0 -9 9 -7 12 12 12 19 0 21 -3 12 -12z m265 -32
c3 -3 -12 -3 -33 -2 -22 2 -52 4 -67 5 -16 1 -26 5 -23 9 5 9 113 -2 123 -12z
m3563 -33 c0 -16 -14 -48 -30 -73 -28 -42 -30 -43 -30 -18 0 30 39 118 52 118
4 0 8 -12 8 -27z m-70 -147 c0 -8 -9 -24 -20 -37 l-20 -24 10 29 c17 47 30 61
30 32z m49 -865 c20 -6 76 -17 125 -26 154 -29 158 -35 31 -56 -60 -9 -128
-15 -150 -12 -71 10 -185 73 -131 73 7 0 19 7 26 15 14 17 47 19 99 6z m785
-244 c17 -16 30 -57 19 -57 -11 0 -73 38 -73 46 0 3 10 2 23 -1 22 -7 22 -7 2
9 -19 14 -19 15 -2 16 10 0 24 -6 31 -13z m-206 -326 c-60 -77 -68 -81 -201
-81 -61 0 -79 3 -84 15 -3 9 -3 18 0 21 7 8 308 112 325 113 7 1 -11 -30 -40
-68z m-428 -536 c0 -18 -1 -18 -16 -3 -10 10 -14 23 -10 34 6 16 8 16 16 4 6
-8 10 -24 10 -35z m-1 -59 c9 -10 6 -31 -12 -87 -25 -80 -46 -97 -65 -54 -16
34 -15 68 0 63 14 -5 38 35 38 61 0 32 20 40 39 17z m1136 -502 c8 -13 13 -24
9 -24 -11 0 -64 41 -64 50 0 16 39 -2 55 -26z m-2035 -154 c0 -13 -11 -13 -30
0 -12 8 -11 10 8 10 12 0 22 -4 22 -10z m1624 -146 c66 -24 129 -43 140 -43
12 1 47 -8 78 -20 31 -11 63 -18 71 -15 8 3 18 1 21 -4 13 -22 -32 -21 -103 2
-42 13 -119 36 -171 51 -90 26 -190 69 -190 81 0 3 8 3 18 -1 9 -4 71 -27 136
-51z m-2207 -1006 c-3 -8 -6 -5 -6 6 -1 11 2 17 5 13 3 -3 4 -12 1 -19z m-287
-24 c0 -2 -7 -4 -15 -4 -8 0 -15 4 -15 10 0 5 7 7 15 4 8 -4 15 -8 15 -10z
m527 -36 c-3 -8 -6 -5 -6 6 -1 11 2 17 5 13 3 -3 4 -12 1 -19z"/>
<path d="M4176 4535 c-3 -8 -1 -15 4 -15 6 0 10 7 10 15 0 8 -2 15 -4 15 -2 0
-6 -7 -10 -15z"/>
<path d="M3775 5350 c3 -5 13 -10 21 -10 8 0 14 5 14 10 0 6 -9 10 -21 10 -11
0 -17 -4 -14 -10z"/>
<path d="M2655 5070 c-55 -55 -107 -100 -115 -101 -10 0 -11 -2 -2 -6 19 -8
14 -26 -7 -20 -10 2 -28 -3 -40 -12 -18 -13 -20 -22 -13 -41 6 -17 11 -20 17
-11 4 8 2 17 -6 22 -12 7 -11 9 1 10 8 1 20 1 26 0 6 -1 31 20 56 46 73 78
138 134 148 128 5 -3 17 8 26 25 18 29 34 39 34 21 0 -15 -76 -125 -105 -151
-14 -14 -37 -42 -51 -63 -14 -21 -36 -42 -49 -47 -14 -5 -24 -15 -23 -22 2 -9
-8 -12 -32 -11 l-35 2 30 -14 c17 -8 35 -14 41 -15 6 0 17 -21 24 -47 20 -75
27 -71 22 12 -4 71 -3 77 17 82 11 3 18 9 15 14 -6 10 20 51 55 89 13 14 36
44 53 68 16 23 33 42 37 42 4 0 13 12 20 26 10 22 8 29 -11 50 -13 13 -25 24
-28 24 -3 0 -50 -45 -105 -100z"/>
<path d="M1615 5099 c-10 -15 1 -23 20 -15 9 3 13 10 10 16 -8 13 -22 13 -30
-1z"/>
<path d="M1690 5090 c0 -5 10 -10 23 -10 18 0 19 2 7 10 -19 13 -30 13 -30 0z"/>
<path d="M1360 5055 c0 -8 7 -15 15 -15 8 0 15 4 15 9 0 5 -7 11 -15 15 -9 3
-15 0 -15 -9z"/>
<path d="M1597 5063 c-11 -11 -8 -20 8 -20 8 0 15 6 15 14 0 14 -12 17 -23 6z"/>
<path d="M1473 5043 c9 -2 25 -2 35 0 9 3 1 5 -18 5 -19 0 -27 -2 -17 -5z"/>
<path d="M2686 5023 c-6 -14 -5 -15 5 -6 7 7 10 15 7 18 -3 3 -9 -2 -12 -12z"/>
<path d="M1860 4997 l-23 -32 29 27 c15 15 26 30 23 33 -3 2 -16 -10 -29 -28z"/>
<path d="M1747 4929 c-27 -29 -31 -49 -8 -34 10 6 45 65 39 65 -2 0 -16 -14
-31 -31z"/>
<path d="M1817 4942 c-19 -20 -23 -37 -7 -27 10 6 33 45 27 45 -2 0 -11 -8
-20 -18z"/>
<path d="M2420 4882 c0 -14 23 -32 42 -32 16 0 16 3 6 20 -12 19 -48 28 -48
12z"/>
<path d="M2665 4860 c28 -12 45 -12 45 0 0 6 -15 10 -32 9 -28 0 -30 -2 -13
-9z"/>
<path d="M2608 4684 c-7 -7 10 -65 24 -79 7 -6 8 2 3 25 -9 42 -19 63 -27 54z"/>
<path d="M1251 4643 c7 -10 14 -20 16 -22 1 -1 7 0 13 4 8 5 5 11 -7 21 -25
19 -38 17 -22 -3z"/>
<path d="M6205 4649 c-33 -4 -89 -7 -124 -8 -36 -1 -90 -5 -120 -11 -31 -5
-105 -16 -166 -24 l-110 -15 110 5 c61 3 141 10 180 15 38 5 125 11 193 13 68
2 126 6 129 9 13 13 -38 22 -92 16z"/>
<path d="M1195 4640 c-3 -5 -1 -10 4 -10 6 0 11 5 11 10 0 6 -2 10 -4 10 -3 0
-8 -4 -11 -10z"/>
<path d="M2640 4581 c0 -5 5 -13 10 -16 6 -3 10 -2 10 4 0 5 -4 13 -10 16 -5
3 -10 2 -10 -4z"/>
<path d="M5610 4579 c-11 -7 -4 -8 25 -3 50 8 58 14 19 14 -16 0 -36 -5 -44
-11z"/>
<path d="M5513 4563 c9 -2 23 -2 30 0 6 3 -1 5 -18 5 -16 0 -22 -2 -12 -5z"/>
<path d="M5428 4553 c7 -3 16 -2 19 1 4 3 -2 6 -13 5 -11 0 -14 -3 -6 -6z"/>
<path d="M5255 4530 c-3 -5 -1 -10 4 -10 6 0 11 5 11 10 0 6 -2 10 -4 10 -3 0
-8 -4 -11 -10z"/>
<path d="M5066 4498 c-76 -23 -85 -33 -21 -23 28 4 64 9 82 10 18 1 38 7 45
12 7 6 22 13 33 16 11 3 -2 5 -30 4 -27 0 -77 -9 -109 -19z"/>
<path d="M4968 4463 c7 -3 16 -2 19 1 4 3 -2 6 -13 5 -11 0 -14 -3 -6 -6z"/>
<path d="M4110 3460 c0 -5 3 -10 8 -11 4 0 15 -2 25 -4 15 -3 16 -1 6 11 -13
16 -39 19 -39 4z"/>
<path d="M745 3410 c-3 -5 1 -10 9 -10 9 0 16 5 16 10 0 6 -4 10 -9 10 -6 0
-13 -4 -16 -10z"/>
<path d="M4140 3410 c-12 -7 -12 -10 2 -15 9 -4 25 -5 35 -3 17 4 16 5 -3 15
-12 7 -26 8 -34 3z"/>
<path d="M770 3379 c0 -5 5 -7 10 -4 6 3 10 8 10 11 0 2 -4 4 -10 4 -5 0 -10
-5 -10 -11z"/>
<path d="M4230 3380 c0 -5 7 -10 16 -10 8 0 12 5 9 10 -3 6 -10 10 -16 10 -5
0 -9 -4 -9 -10z"/>
<path d="M4272 3378 c3 -7 17 -14 32 -16 18 -2 26 0 22 7 -4 5 -13 8 -21 4 -8
-3 -15 0 -15 6 0 6 -5 11 -11 11 -6 0 -9 -6 -7 -12z"/>
<path d="M4660 3301 c0 -5 5 -13 10 -16 6 -3 10 -2 10 4 0 5 -4 13 -10 16 -5
3 -10 2 -10 -4z"/>
<path d="M5297 2223 c-3 -5 -7 -29 -11 -55 -8 -50 -5 -55 51 -74 37 -13 79 -8
87 11 3 8 -1 35 -7 61 -9 38 -17 50 -37 55 -35 10 -78 10 -83 2z"/>
<path d="M5477 2180 c-10 -36 -10 -37 23 -37 22 0 30 5 30 19 0 11 -7 18 -19
18 -11 0 -21 6 -23 12 -3 7 -7 1 -11 -12z"/>
<path d="M5210 2140 c0 -11 5 -20 10 -20 6 0 10 9 10 20 0 11 -4 20 -10 20 -5
0 -10 -9 -10 -20z"/>
<path d="M5654 2075 c-4 -8 -12 -15 -20 -15 -8 0 -14 -4 -14 -10 0 -5 -9 -10
-19 -10 -21 0 -73 -39 -53 -40 9 0 11 -7 6 -22 -4 -13 -8 -32 -9 -44 -1 -11
-5 -26 -9 -33 -5 -7 -1 -18 10 -26 14 -10 16 -18 8 -36 -5 -13 -9 -38 -9 -56
1 -30 -1 -31 -32 -26 -21 4 -33 1 -33 -5 0 -16 -51 -8 -88 13 -29 18 -50 55
-31 55 24 0 5 28 -23 34 -36 7 -62 -9 -38 -24 13 -9 13 -11 0 -19 -12 -8 -12
-14 -1 -34 10 -20 31 -29 104 -49 73 -19 93 -28 95 -43 2 -11 11 -28 20 -37
10 -12 11 -18 3 -18 -15 0 -31 -43 -25 -67 4 -14 12 -19 27 -16 14 2 34 -8 55
-27 28 -26 33 -37 31 -68 -1 -20 1 -49 5 -65 5 -18 4 -32 -4 -42 -10 -12 -9
-16 6 -21 57 -17 161 -58 174 -68 53 -40 77 -45 170 -41 51 3 95 7 98 10 3 3
16 5 29 5 36 0 27 19 -20 39 -23 10 -49 26 -57 36 -14 17 -13 18 14 11 25 -6
28 -5 24 12 -5 19 -4 19 31 5 41 -17 64 -34 57 -41 -3 -2 6 -14 20 -25 25 -19
28 -19 107 -3 45 9 92 16 104 16 19 0 15 8 -32 55 -30 30 -66 57 -80 61 -14 3
-23 10 -20 14 3 4 -9 10 -25 14 -49 9 -36 28 17 25 41 -3 48 0 52 16 2 11 8
26 13 33 8 8 6 12 -5 12 -20 0 -29 26 -14 39 7 5 25 14 40 20 15 6 27 15 27
20 0 6 14 17 30 26 l30 16 0 100 0 101 -37 34 c-21 18 -52 47 -70 64 -17 16
-41 30 -52 30 -12 0 -21 6 -21 15 0 8 5 15 12 15 6 0 3 8 -8 18 -18 18 -20 18
-32 1 -11 -16 -28 -18 -162 -16 -83 1 -150 5 -150 8 0 10 -137 59 -163 59 -16
0 -18 -3 -9 -12 17 -17 15 -29 -3 -22 -8 4 -15 15 -15 25 0 11 -7 19 -16 19
-8 0 -12 5 -9 10 3 6 4 10 0 10 -3 0 -8 -7 -11 -15z m213 -379 c100 -40 166
-64 210 -76 41 -10 61 -25 49 -37 -3 -3 -27 1 -53 10 -165 56 -215 76 -231 91
-10 9 -24 16 -30 16 -7 0 -12 5 -12 10 0 13 0 13 67 -14z m-88 -107 c35 -16
69 -29 75 -29 6 0 36 -15 66 -33 30 -18 80 -43 110 -57 73 -32 84 -43 35 -34
-22 3 -71 25 -109 47 -38 21 -114 59 -170 84 -55 24 -105 49 -111 55 -14 15
25 2 104 -33z m431 -196 c44 -20 80 -43 80 -50 0 -9 -31 3 -90 32 -49 25 -90
47 -90 50 0 11 24 3 100 -32z"/>
<path d="M5510 1925 c0 -8 4 -15 10 -15 5 0 7 7 4 15 -4 8 -8 15 -10 15 -2 0
-4 -7 -4 -15z"/>
<path d="M5015 1550 c3 -5 13 -10 21 -10 8 0 12 5 9 10 -3 6 -13 10 -21 10 -8
0 -12 -4 -9 -10z"/>
<path d="M5327 1510 c-4 -16 0 -20 17 -20 31 0 39 11 18 26 -23 18 -29 17 -35
-6z"/>
<path d="M5516 1481 c-4 -7 -5 -15 -2 -18 9 -9 19 4 14 18 -4 11 -6 11 -12 0z"/>
<path d="M5013 1456 c3 -8 3 -17 -1 -21 -4 -4 -8 -11 -8 -16 -1 -5 -2 -12 -3
-16 0 -3 -10 2 -21 12 -11 10 -20 13 -20 8 0 -21 31 -37 49 -26 13 8 32 7 71
-3 76 -20 89 -19 65 5 -23 22 -111 71 -126 71 -6 0 -9 -6 -6 -14z"/>
<path d="M5306 1434 c-6 -17 -8 -74 -2 -74 16 0 66 24 66 32 0 15 -24 35 -38
30 -7 -2 -10 2 -6 12 3 9 2 16 -4 16 -5 0 -13 -7 -16 -16z"/>
<path d="M5376 1440 c-11 -3 -15 -9 -10 -13 10 -6 42 9 34 16 -3 3 -14 1 -24
-3z"/>
<path d="M5185 1390 c-3 -5 -1 -10 4 -10 6 0 11 5 11 10 0 6 -2 10 -4 10 -3 0
-8 -4 -11 -10z"/>
<path d="M2980 596 c0 -8 5 -18 10 -21 6 -3 10 1 10 9 0 8 -4 18 -10 21 -5 3
-10 -1 -10 -9z"/>
<path d="M2620 505 c-7 -9 -10 -18 -7 -21 3 -3 10 4 17 15 13 25 8 27 -10 6z"/>
<path d="M2630 450 c0 -5 5 -10 10 -10 6 0 10 5 10 10 0 6 -4 10 -10 10 -5 0
-10 -4 -10 -10z"/>
<path d="M2845 403 c4 -10 7 -30 6 -45 -1 -15 3 -29 9 -33 6 -4 10 13 10 44 0
40 -3 51 -16 51 -12 0 -14 -5 -9 -17z"/>
<path d="M2668 393 c7 -3 16 -2 19 1 4 3 -2 6 -13 5 -11 0 -14 -3 -6 -6z"/>
<path d="M2695 360 c3 -5 10 -10 16 -10 5 0 9 5 9 10 0 6 -7 10 -16 10 -8 0
-12 -4 -9 -10z"/>
<path d="M2473 198 c3 -13 11 -54 17 -93 14 -92 19 -105 36 -105 17 0 18 12 4
26 -6 6 -12 35 -14 65 -3 52 -28 129 -42 129 -3 0 -4 -10 -1 -22z"/>
<path d="M2790 20 c0 -5 7 -10 15 -10 8 0 15 5 15 10 0 6 -7 10 -15 10 -8 0
-15 -4 -15 -10z"/>
</g>
</svg>
